<?xml version="1.0" encoding="UTF-8" standalone="no"?>
<svg
   width="310"
   height="310"
   viewBox="0 0 310 310"
   fill="none"
   version="1.1"
   id="svg49"
   sodipodi:docname="logo.svg"
   inkscape:version="1.1 (c68e22c387, 2021-05-23)"
   xmlns:inkscape="http://www.inkscape.org/namespaces/inkscape"
   xmlns:sodipodi="http://sodipodi.sourceforge.net/DTD/sodipodi-0.dtd"
   xmlns="http://www.w3.org/2000/svg"
   xmlns:svg="http://www.w3.org/2000/svg">
  <defs
     id="defs53">
    <rect
       x="66.83902"
       y="62.30756"
       width="380.64255"
       height="279.8176"
       id="rect3315" />
    <clipPath
       clipPathUnits="userSpaceOnUse"
       id="clipPath8032">
      <path
         id="path8034"
         style="fill:#b04377"
         d="M 197.40429,27.011517 A 201,201 0 0 0 69.615235,85.370897 201,201 0 0 0 13.437505,197.98027 h -77.91211 v 59.03711 h 77.91211 a 201,201 0 0 0 56.17773,112.61133 201,201 0 0 0 284.257805,0 201,201 0 0 0 56.69141,-112.61133 H 330.6289 a 122.5,122.5 0 0 1 -32.26367,57.10352 122.5,122.5 0 0 1 -173.24219,0 122.5,122.5 0 0 1 -32.058585,-57.10352 h -79.36914 a 201,201 0 0 1 0,-59.03515 h 79.36914 a 122.5,122.5 0 0 1 32.058585,-57.10352 122.5,122.5 0 0 1 173.24219,0 122.5,122.5 0 0 1 32.26367,57.10352 h 79.93555 A 201,201 0 0 0 353.87304,85.370897 201,201 0 0 0 197.40429,27.011517 Z M 410.82031,197.98027 a 201,201 0 0 1 0,59.03711 h 77.65429 v -59.03711 z" />
    </clipPath>
    <rect
       x="66.83902"
       y="62.30756"
       width="300.11932"
       height="407.89822"
       id="rect15487" />
  </defs>
  <sodipodi:namedview
     id="namedview51"
     pagecolor="#ffffff"
     bordercolor="#666666"
     borderopacity="1.0"
     inkscape:pageshadow="2"
     inkscape:pageopacity="0.0"
     inkscape:pagecheckerboard="0"
     showgrid="false"
     showguides="true"
     inkscape:guide-bbox="true"
     inkscape:zoom="0.88271792"
     inkscape:cx="121.78296"
     inkscape:cy="280.38402"
     inkscape:window-width="1366"
     inkscape:window-height="705"
     inkscape:window-x="-8"
     inkscape:window-y="-8"
     inkscape:window-maximized="1"
     inkscape:current-layer="layer1"
     width="1000px" />
  <mask
     id="mask0_10_2"
     maskUnits="userSpaceOnUse"
     x="12"
     y="21"
     width="402"
     height="402">
    <circle
       cx="213"
       cy="222"
       r="201"
       fill="#d05a1a"
       id="circle38" />
    <circle
       cx="213"
       cy="222"
       r="201"
       fill="#b04377"
       id="circle40" />
  </mask>
  <g
     inkscape:groupmode="layer"
     id="layer1"
     inkscape:label="draw"
     style="display:inline">
    <g
       id="g18615"
       transform="matrix(3.1763303,0,0,3.1763303,-639.0826,-164.24139)"
       style="fill:#f9f9f9">
      <path
         id="path15397"
         style="fill:#f9f9f9;stroke-width:0.131155"
         d="m 230.05311,71.868505 a 26.362101,26.362101 0 0 0 -6.43894,17.263485 26.362101,26.362101 0 0 0 5.2335,15.65338 l -7.2256,7.2256 5.47512,5.47512 7.2256,-7.2256 a 26.362101,26.362101 0 0 0 15.65357,5.23368 26.362101,26.362101 0 0 0 26.36218,-26.36218 26.362101,26.362101 0 0 0 -5.18604,-15.701208 l -7.41325,7.413255 a 16.066454,16.066454 0 0 1 2.30365,8.287953 16.066454,16.066454 0 0 1 -16.06654,16.06654 16.066454,16.066454 0 0 1 -8.26894,-2.32267 l -7.36072,7.36072 a 26.362101,26.362101 0 0 1 -5.47494,-5.47494 l 7.36072,-7.360724 a 16.066454,16.066454 0 0 1 -2.32267,-8.268926 16.066454,16.066454 0 0 1 16.06655,-16.066554 16.066454,16.066454 0 0 1 8.28794,2.303658 l 7.41326,-7.413255 a 26.362101,26.362101 0 0 0 -15.7012,-5.186036 26.362101,26.362101 0 0 0 -19.92325,9.098702 z m 35.64799,-3.936576 a 26.362101,26.362101 0 0 1 5.47514,5.475125 l 7.20168,-7.20169 -5.47511,-5.475125 z" />
      <g
         aria-label="UNDEFINED"
         style="font-style:normal;font-weight:normal;font-size:32.153px;line-height:1.25;font-family:sans-serif;letter-spacing:0px;word-spacing:0px;display:inline;fill:#f9f9f9;fill-opacity:1;stroke:none;stroke-width:19.3665;stroke-miterlimit:4;stroke-dasharray:none;paint-order:stroke markers fill"
         id="g15485"
         transform="matrix(0.50124901,0,0,0.50124901,186.91548,57.927851)">
        <path
           inkscape:connector-curvature="0"
           d="m 54.852726,154.15682 q 0,10.14201 -9.451224,10.14201 -9.16863,0 -9.16863,-9.90651 v -12.99936 h 5.086705 v 13.06216 q 0,5.4635 4.270321,5.4635 4.191822,0 4.191822,-5.27511 v -13.25055 h 5.071006 z"
           style="font-style:normal;font-variant:normal;font-weight:bold;font-stretch:normal;font-family:'Segoe UI';-inkscape-font-specification:'Segoe UI Bold';fill:#f9f9f9;fill-opacity:1;stroke:none;stroke-width:19.3665;stroke-miterlimit:4;stroke-dasharray:none;paint-order:stroke markers fill"
           id="path15467" />
        <path
           inkscape:connector-curvature="0"
           d="M 79.98796,163.90634 H 74.869855 L 65.591327,149.7609 q -0.816385,-1.24027 -1.130379,-1.86826 h -0.0628 q 0.125598,1.19318 0.125598,3.64233 v 12.37137 h -4.788411 v -22.51338 h 5.463498 l 8.933135,13.70584 q 0.612288,0.92629 1.130379,1.83687 h 0.0628 q -0.125598,-0.78498 -0.125598,-3.09284 v -12.44987 h 4.788411 z"
           style="font-style:normal;font-variant:normal;font-weight:bold;font-stretch:normal;font-family:'Segoe UI';-inkscape-font-specification:'Segoe UI Bold';fill:#f9f9f9;fill-opacity:1;stroke:none;stroke-width:19.3665;stroke-miterlimit:4;stroke-dasharray:none;paint-order:stroke markers fill"
           id="path15469" />
        <path
           inkscape:connector-curvature="0"
           d="m 85.168865,163.90634 v -22.51338 h 7.975452 q 11.994573,0 11.994573,10.9741 0,5.2594 -3.28123,8.39934 -3.265544,3.13994 -8.713343,3.13994 z m 5.071006,-18.38436 v 14.27104 h 2.511953 q 3.296939,0 5.165204,-1.97817 1.883965,-1.97816 1.883965,-5.385 0,-3.21844 -1.868265,-5.0553 -1.852566,-1.85257 -5.212303,-1.85257 z"
           style="font-style:normal;font-variant:normal;font-weight:bold;font-stretch:normal;font-family:'Segoe UI';-inkscape-font-specification:'Segoe UI Bold';fill:#f9f9f9;fill-opacity:1;stroke:none;stroke-width:19.3665;stroke-miterlimit:4;stroke-dasharray:none;paint-order:stroke markers fill"
           id="path15471" />
        <path
           inkscape:connector-curvature="0"
           d="m 122.40858,163.90634 h -13.50175 v -22.51338 h 12.98365 v 4.12902 h -7.91265 v 5.00821 h 7.36316 v 4.11332 h -7.36316 v 5.14951 h 8.43075 z"
           style="font-style:normal;font-variant:normal;font-weight:bold;font-stretch:normal;font-family:'Segoe UI';-inkscape-font-specification:'Segoe UI Bold';fill:#f9f9f9;fill-opacity:1;stroke:none;stroke-width:19.3665;stroke-miterlimit:4;stroke-dasharray:none;paint-order:stroke markers fill"
           id="path15473" />
        <path
           inkscape:connector-curvature="0"
           d="m 139.06597,145.52198 h -7.94406 v 5.5263 h 7.30037 v 4.11332 h -7.30037 v 8.74474 h -5.071 v -22.51338 h 13.01506 z"
           style="font-style:normal;font-variant:normal;font-weight:bold;font-stretch:normal;font-family:'Segoe UI';-inkscape-font-specification:'Segoe UI Bold';fill:#f9f9f9;fill-opacity:1;stroke:none;stroke-width:19.3665;stroke-miterlimit:4;stroke-dasharray:none;paint-order:stroke markers fill"
           id="path15475" />
        <path
           inkscape:connector-curvature="0"
           d="m 147.8264,163.90634 h -5.071 v -22.51338 h 5.071 z"
           style="font-style:normal;font-variant:normal;font-weight:bold;font-stretch:normal;font-family:'Segoe UI';-inkscape-font-specification:'Segoe UI Bold';fill:#f9f9f9;fill-opacity:1;stroke:none;stroke-width:19.3665;stroke-miterlimit:4;stroke-dasharray:none;paint-order:stroke markers fill"
           id="path15477" />
        <path
           inkscape:connector-curvature="0"
           d="m 173.18143,163.90634 h -5.1181 L 158.7848,149.7609 q -0.81639,-1.24027 -1.13038,-1.86826 h -0.0628 q 0.1256,1.19318 0.1256,3.64233 v 12.37137 h -4.78841 v -22.51338 h 5.46349 l 8.93314,13.70584 q 0.61229,0.92629 1.13038,1.83687 h 0.0628 q -0.1256,-0.78498 -0.1256,-3.09284 v -12.44987 h 4.78841 z"
           style="font-style:normal;font-variant:normal;font-weight:bold;font-stretch:normal;font-family:'Segoe UI';-inkscape-font-specification:'Segoe UI Bold';fill:#f9f9f9;fill-opacity:1;stroke:none;stroke-width:19.3665;stroke-miterlimit:4;stroke-dasharray:none;paint-order:stroke markers fill"
           id="path15479" />
        <path
           inkscape:connector-curvature="0"
           d="m 191.86408,163.90634 h -13.50175 v -22.51338 h 12.98366 v 4.12902 h -7.91265 v 5.00821 h 7.36316 v 4.11332 h -7.36316 v 5.14951 h 8.43074 z"
           style="font-style:normal;font-variant:normal;font-weight:bold;font-stretch:normal;font-family:'Segoe UI';-inkscape-font-specification:'Segoe UI Bold';fill:#f9f9f9;fill-opacity:1;stroke:none;stroke-width:19.3665;stroke-miterlimit:4;stroke-dasharray:none;paint-order:stroke markers fill"
           id="path15481" />
        <path
           inkscape:connector-curvature="0"
           d="m 195.50642,163.90634 v -22.51338 h 7.97545 q 11.99458,0 11.99458,10.9741 0,5.2594 -3.28124,8.39934 -3.26554,3.13994 -8.71334,3.13994 z m 5.07101,-18.38436 v 14.27104 h 2.51195 q 3.29694,0 5.1652,-1.97817 1.88397,-1.97816 1.88397,-5.385 0,-3.21844 -1.86827,-5.0553 -1.85256,-1.85257 -5.2123,-1.85257 z"
           style="font-style:normal;font-variant:normal;font-weight:bold;font-stretch:normal;font-family:'Segoe UI';-inkscape-font-specification:'Segoe UI Bold';fill:#f9f9f9;fill-opacity:1;stroke:none;stroke-width:19.3665;stroke-miterlimit:4;stroke-dasharray:none;paint-order:stroke markers fill"
           id="path15483" />
      </g>
    </g>
    <path
       id="path11815"
       style="fill:#ffffff;fill-opacity:0.0313253;stroke-width:2.96841"
       d="m 269.80274,1533.0832 a 596.65047,596.65047 0 0 0 -145.73179,390.7229 596.65047,596.65047 0 0 0 118.44922,354.2807 L 78.983951,2441.6234 202.90175,2565.5411 366.43797,2402.0045 a 596.65047,596.65047 0 0 0 354.2855,118.4538 596.65047,596.65047 0 0 0 596.65223,-596.6522 596.65047,596.65047 0 0 0 -117.3751,-355.3639 l -167.7832,167.7832 a 363.63025,363.63025 0 0 1 52.1383,187.5807 363.63025,363.63025 0 0 1 -363.63223,363.6322 363.63025,363.63025 0 0 1 -187.15001,-52.5687 L 366.97909,2401.4639 A 596.65047,596.65047 0 0 1 243.06538,2277.5501 l 166.59438,-166.5943 a 363.63025,363.63025 0 0 1 -52.56874,-187.1497 363.63025,363.63025 0 0 1 363.63245,-363.6328 363.63025,363.63025 0 0 1 187.57995,52.1383 L 1076.0869,1444.5284 A 596.65047,596.65047 0 0 0 720.72347,1327.1533 596.65047,596.65047 0 0 0 269.80274,1533.0832 Z m 806.81696,-89.0961 a 596.65047,596.65047 0 0 1 123.9183,123.9184 l 162.9947,-162.9953 -123.9175,-123.9177 z" />
  </g>
  <g
     inkscape:groupmode="layer"
     id="layer2"
     inkscape:label="linha"
     style="display:inline" />
</svg>
